{
  "accessors": [
    {
      "bufferView": 2,
      "componentType": 5126,
      "count": 74,
      "max": [
        1.0442819595336914,
        1.5260837078094482,
        0.8052178621292114
      ],
      "min": [
        -1.2859201431274414,
        -1.2084908485412598,
        -1.0594664812088013
      ],
      "type": "VEC3"
    },
    {
      "bufferView": 2,
      "byteOffset": 888,
      "componentType": 5126,
      "count": 74,
      "max": [
        0.8924001455307007,
        0.8538026809692383,
        0.9955403208732605
      ],
      "min": [
        -0.8936934471130371,
        -0.9368290901184082,
        -0.969582200050354
      ],
      "type": "VEC3"
    },
    {
      "bufferView": 1,
      "componentType": 5126,
      "count": 74,
      "max": [
        0.8427678346633911,
        0.9435323476791382
      ],
      "min": [
        0.048572391271591187,
        0.056467413902282715
      ],
      "type": "VEC2"
    },
    {
      "bufferView": 0,
      "componentType": 5125,
      "count": 132,
      "type": "SCALAR"
    },
    {
      "bufferView": 2,
      "byteOffset": 1776,
      "componentType": 5126,
      "count": 76,
      "max": [
        0.7588726282119751,
        0.8262059688568115,
        0.7281700372695923
      ],
      "min": [
        -0.9125320911407471,
        -0.5663514733314514,
        -0.30983808636665344
      ],
      "type": "VEC3"
    },
    {
      "bufferView": 2,
      "byteOffset": 2688,
      "componentType": 5126,
      "count": 76,
      "max": [
        0.9597116112709045,
        0.9914056658744812,
        0.956298828125
      ],
      "min": [
        -0.9911487102508545,
        -0.9465736150741577,
        -0.9996311664581299
      ],
      "type": "VEC3"
    },
    {
      "bufferView": 1,
      "byteOffset": 592,
      "componentType": 5126,
      "count": 76,
      "max": [
        0.9245867729187012,
        1.002042531967163
      ],
      "min": [
        0.021349677816033363,
        -0.0058623552322387695
      ],
      "type": "VEC2"
    },
    {
      "bufferView": 0,
      "byteOffset": 528,
      "componentType": 5125,
      "count": 132,
      "type": "SCALAR"
    },
    {
      "bufferView": 2,
      "byteOffset": 3600,
      "componentType": 5126,
      "count": 92,
      "max": [
        1.0847032070159912,
        0.7349683046340942,
        1.1741341352462769
      ],
      "min": [
        -0.8533530831336975,
        -1.3296006917953491,
        -0.2252608984708786
      ],
      "type": "VEC3"
    },
    {
      "bufferView": 2,
      "byteOffset": 4704,
      "componentType": 5126,
      "count": 92,
      "max": [
        0.9645171165466309,
        0.9609920382499695,
        0.9560033082962036
      ],
      "min": [
        -0.9656692743301392,
        -0.9955011010169983,
        -0.98606938123703
      ],
      "type": "VEC3"
    },
    {
      "bufferView": 1,
      "byteOffset": 1200,
      "componentType": 5126,
      "count": 92,
      "max": [
        0.8059049844741821,
        0.9518080949783325
      ],
      "min": [
        0.0,
        0.0
      ],
      "type": "VEC2"
    },
    {
      "bufferView": 0,
      "byteOffset": 1056,
      "componentType": 5125,
      "count": 144,
      "type": "SCALAR"
    },
    {
      "bufferView": 2,
      "byteOffset": 5808,
      "componentType": 5126,
      "count": 76,
      "max": [
        1.0891281366348267,
        1.0741866827011108,
        1.1214616298675537
      ],
      "min": [
        -0.5258750319480896,
        -0.368114709854126,
        -1.0
      ],
      "type": "VEC3"
    },
    {
      "bufferView": 2,
      "byteOffset": 6720,
      "componentType": 5126,
      "count": 76,
      "max": [
        0.9976640343666077,
        0.9974468946456909,
        0.9973224401473999
      ],
      "min": [
        -0.9701048135757446,
        -0.9627331495285034,
        -1.0
      ],
      "type": "VEC3"
    },
    {
      "bufferView": 1,
      "byteOffset": 1936,
      "componentType": 5126,
      "count": 76,
      "max": [
        1.0860671997070313,
        0.9397336840629578
      ],
      "min": [
        -0.258908748626709,
        -0.006785452365875244
      ],
      "type": "VEC2"
    },
    {
      "bufferView": 0,
      "byteOffset": 1632,
      "componentType": 5125,
      "count": 132,
      "type": "SCALAR"
    },
    {
      "bufferView": 2,
      "byteOffset": 7632,
      "componentType": 5126,
      "count": 76,
      "max": [
        0.42197805643081665,
        0.4219779968261719,
        0.42197805643081665
      ],
      "min": [
        -0.3490099310874939,
        -0.4219781160354614,
        -0.42197805643081665
      ],
      "type": "VEC3"
    },
    {
      "bufferView": 2,
      "byteOffset": 8544,
      "componentType": 5126,
      "count": 76,
      "max": [
        1.0,
        0.9959354400634766,
        0.9716664552688599
      ],
      "min": [
        -0.98736172914505,
        -0.9611355066299438,
        -0.9911176562309265
      ],
      "type": "VEC3"
    },
    {
      "bufferView": 1,
      "byteOffset": 2544,
      "componentType": 5126,
      "count": 76,
      "max": [
        0.6301361918449402,
        0.7176650762557983
      ],
      "min": [
        0.24790039658546448,
        0.28233492374420166
      ],
      "type": "VEC2"
    },
    {
      "bufferView": 0,
      "byteOffset": 2160,
      "componentType": 5125,
      "count": 132,
      "type": "SCALAR"
    }
  ],
  "asset": {
    "extras": {
      "author": "Drops (https://sketchfab.com/rafacandido2016)",
      "license": "CC-BY-4.0 (http://creativecommons.org/licenses/by/4.0/)",
      "source": "https://sketchfab.com/3d-models/rocks-psx-low-poly-4a9020e1803444c7aa79a6272a7d09b9",
      "title": "Rocks - PSX Low Poly"
    },
    "generator": "Sketchfab-14.1.2",
    "version": "2.0"
  },
  "bufferViews": [
    {
      "buffer": 0,
      "byteLength": 2688,
      "name": "floatBufferViews",
      "target": 34963
    },
    {
      "buffer": 0,
      "byteLength": 3152,
      "byteOffset": 2688,
      "byteStride": 8,
      "name": "floatBufferViews",
      "target": 34962
    },
    {
      "buffer": 0,
      "byteLength": 9456,
      "byteOffset": 5840,
      "byteStride": 12,
      "name": "floatBufferViews",
      "target": 34962
    }
  ],
  "buffers": [
    {
      "byteLength": 15296,
      "uri": "scene.bin"
    }
  ],
  "images": [
    {
      "uri": "textures/stone_2_baseColor.png"
    },
    {
      "uri": "textures/stone1_baseColor.png"
    }
  ],
  "materials": [
    {
      "doubleSided": true,
      "name": "stone_2",
      "pbrMetallicRoughness": {
        "baseColorTexture": {
          "index": 0
        },
        "metallicFactor": 0.0,
        "roughnessFactor": 0.8040408205773457
      }
    },
    {
      "doubleSided": true,
      "name": "stone1",
      "pbrMetallicRoughness": {
        "baseColorTexture": {
          "index": 1
        },
        "metallicFactor": 0.0,
        "roughnessFactor": 0.8211145618000169
      }
    }
  ],
  "meshes": [
    {
      "name": "mediun rock 3_stone 2_0",
      "primitives": [
        {
          "attributes": {
            "NORMAL": 1,
            "POSITION": 0,
            "TEXCOORD_0": 2
          },
          "indices": 3,
          "material": 0,
          "mode": 4
        }
      ]
    },
    {
      "name": "mediun rock 2_stone1_0",
      "primitives": [
        {
          "attributes": {
            "NORMAL": 5,
            "POSITION": 4,
            "TEXCOORD_0": 6
          },
          "indices": 7,
          "material": 1,
          "mode": 4
        }
      ]
    },
    {
      "name": "mediun rock_stone1_0",
      "primitives": [
        {
          "attributes": {
            "NORMAL": 9,
            "POSITION": 8,
            "TEXCOORD_0": 10
          },
          "indices": 11,
          "material": 1,
          "mode": 4
        }
      ]
    },
    {
      "name": "big rock_stone1_0",
      "primitives": [
        {
          "attributes": {
            "NORMAL": 13,
            "POSITION": 12,
            "TEXCOORD_0": 14
          },
          "indices": 15,
          "material": 1,
          "mode": 4
        }
      ]
    },
    {
      "name": "small rock_stone 2_0",
      "primitives": [
        {
          "attributes": {
            "NORMAL": 17,
            "POSITION": 16,
            "TEXCOORD_0": 18
          },
          "indices": 19,
          "material": 0,
          "mode": 4
        }
      ]
    }
  ],
  "nodes": [
    {
      "children": [
        1
      ],
      "matrix": [
        1.0,
        0.0,
        0.0,
        0.0,
        0.0,
        2.220446049250313e-16,
        -1.0,
        0.0,
        0.0,
        1.0,
        2.220446049250313e-16,
        0.0,
        0.0,
        0.0,
        0.0,
        1.0
      ],
      "name": "Sketchfab_model"
    },
    {
      "children": [
        2
      ],
      "matrix": [
        0.009999999776482582,
        0.0,
        0.0,
        0.0,
        0.0,
        0.0,
        0.009999999776482582,
        0.0,
        0.0,
        -0.009999999776482582,
        0.0,
        0.0,
        0.0,
        0.0,
        0.0,
        1.0
      ],
      "name": "rocks.fbx"
    },
    {
      "children": [
        3,
        5,
        7,
        9,
        11
      ],
      "name": "RootNode"
    },
    {
      "children": [
        4
      ],
      "matrix": [
        60.0373374195563,
        -23.571157290772053,
        -9.830457650705187,
        0.0,
        -11.843687521136427,
        -3.447302990444305,
        -64.06685887471018,
        0.0,
        22.626630760020415,
        60.73908036959431,
        -7.451102897151592,
        0.0,
        16.178434371948242,
        44.07584762573242,
        295.140869140625,
        1.0
      ],
      "name": "mediun rock 3"
    },
    {
      "mesh": 0,
      "name": "mediun rock 3_stone 2_0"
    },
    {
      "children": [
        6
      ],
      "matrix": [
        117.66166687011719,
        0.0,
        0.0,
        0.0,
        0.0,
        -1.9169518704854834e-05,
        -117.66166687011564,
        0.0,
        0.0,
        117.66166687011564,
        -1.9169518704854834e-05,
        0.0,
        28.890058517456055,
        26.593006134033203,
        25.936948776245117,
        1.0
      ],
      "name": "mediun rock 2"
    },
    {
      "mesh": 1,
      "name": "mediun rock 2_stone1_0"
    },
    {
      "children": [
        8
      ],
      "matrix": [
        94.22429610805246,
        33.38261331118152,
        -2.7171955134249832,
        0.0,
        -1.011593321336085,
        -5.272535451563765,
        -99.85578124908056,
        0.0,
        -33.477736974121946,
        94.11590115395713,
        -4.630313482804977,
        0.0,
        0.0,
        0.03302255645394325,
        -317.0587158203125,
        1.0
      ],
      "name": "mediun rock"
    },
    {
      "mesh": 2,
      "name": "mediun rock_stone1_0"
    },
    {
      "children": [
        10
      ],
      "matrix": [
        104.41900634765625,
        0.0,
        0.0,
        0.0,
        -0.0,
        -2.4774006483350888e-05,
        -152.06176757812298,
        0.0,
        0.0,
        179.11755371093514,
        -2.918195354158879e-05,
        0.0,
        -10.400421142578125,
        64.85757446289063,
        -507.6661071777344,
        1.0
      ],
      "name": "big rock"
    },
    {
      "mesh": 3,
      "name": "big rock_stone1_0"
    },
    {
      "children": [
        12
      ],
      "matrix": [
        -30.574460202014716,
        36.63383434384647,
        -26.012215474879646,
        0.0,
        -44.6186293414627,
        -21.060904767185583,
        22.783480756136402,
        0.0,
        5.2774134045969365,
        34.17413385729687,
        41.92551355409939,
        0.0,
        0.8770346641540527,
        10.164115905761719,
        495.1867980957031,
        1.0
      ],
      "name": "small rock"
    },
    {
      "mesh": 4,
      "name": "small rock_stone 2_0"
    }
  ],
  "samplers": [
    {
      "magFilter": 9729,
      "minFilter": 9987,
      "wrapS": 10497,
      "wrapT": 10497
    }
  ],
  "scene": 0,
  "scenes": [
    {
      "name": "Sketchfab_Scene",
      "nodes": [
        0
      ]
    }
  ],
  "textures": [
    {
      "sampler": 0,
      "source": 0
    },
    {
      "sampler": 0,
      "source": 1
    }
  ]
}
