{
  "accessors": [
    {
      "bufferView": 2,
      "componentType": 5126,
      "count": 101,
      "max": [
        7.299718856811523,
        6.296852111816406,
        16.520124435424805
      ],
      "min": [
        -6.310340404510498,
        -6.531676292419434,
        -0.10567069053649902
      ],
      "type": "VEC3"
    },
    {
      "bufferView": 2,
      "byteOffset": 1212,
      "componentType": 5126,
      "count": 101,
      "max": [
        0.983494758605957,
        0.9868977665901184,
        0.17945705354213715
      ],
      "min": [
        -0.9896301031112671,
        -0.9999599456787109,
        -0.9830692410469055
      ],
      "type": "VEC3"
    },
    {
      "bufferView": 3,
      "componentType": 5126,
      "count": 101,
      "max": [
        1.0,
        1.0,
        1.0,
        1.0
      ],
      "min": [
        0.545098066329956,
        0.545098066329956,
        0.545098066329956,
        1.0
      ],
      "type": "VEC4"
    },
    {
      "bufferView": 1,
      "componentType": 5126,
      "count": 101,
      "max": [
        0.99462890625,
        3.1918210983276367
      ],
      "min": [
        0.007234320044517517,
        -0.863913893699646
      ],
      "type": "VEC2"
    },
    {
      "bufferView": 0,
      "componentType": 5125,
      "count": 261,
      "type": "SCALAR"
    },
    {
      "bufferView": 2,
      "byteOffset": 2424,
      "componentType": 5126,
      "count": 85,
      "max": [
        5.553171157836914,
        6.269122123718262,
        14.397614479064941
      ],
      "min": [
        -5.953575134277344,
        -6.562582015991211,
        0.0
      ],
      "type": "VEC3"
    },
    {
      "bufferView": 2,
      "byteOffset": 3444,
      "componentType": 5126,
      "count": 85,
      "max": [
        0.983494758605957,
        0.960395097732544,
        0.9953576326370239
      ],
      "min": [
        -0.9914243221282959,
        -0.9936369061470032,
        -0.14396658539772034
      ],
      "type": "VEC3"
    },
    {
      "bufferView": 3,
      "byteOffset": 1616,
      "componentType": 5126,
      "count": 85,
      "max": [
        1.0,
        1.0,
        1.0,
        1.0
      ],
      "min": [
        0.6117647290229797,
        0.6117647290229797,
        0.6117647290229797,
        1.0
      ],
      "type": "VEC4"
    },
    {
      "bufferView": 1,
      "byteOffset": 808,
      "componentType": 5126,
      "count": 85,
      "max": [
        0.99462890625,
        2.9253928661346436
      ],
      "min": [
        0.028641384094953537,
        0.008782930672168732
      ],
      "type": "VEC2"
    },
    {
      "bufferView": 0,
      "byteOffset": 1044,
      "componentType": 5125,
      "count": 210,
      "type": "SCALAR"
    },
    {
      "bufferView": 2,
      "byteOffset": 4464,
      "componentType": 5126,
      "count": 83,
      "max": [
        5.912478923797607,
        6.045943737030029,
        17.37645721435547
      ],
      "min": [
        -6.860132217407227,
        -7.159460544586182,
        0.0
      ],
      "type": "VEC3"
    },
    {
      "bufferView": 2,
      "byteOffset": 5460,
      "componentType": 5126,
      "count": 83,
      "max": [
        0.983494758605957,
        0.9373910427093506,
        0.17945703864097595
      ],
      "min": [
        -0.9540675282478333,
        -0.9998036623001099,
        -0.9998555779457092
      ],
      "type": "VEC3"
    },
    {
      "bufferView": 3,
      "byteOffset": 2976,
      "componentType": 5126,
      "count": 83,
      "max": [
        1.0,
        1.0,
        1.0,
        1.0
      ],
      "min": [
        0.49803921580314636,
        0.49803921580314636,
        0.49803921580314636,
        1.0
      ],
      "type": "VEC4"
    },
    {
      "bufferView": 1,
      "byteOffset": 1488,
      "componentType": 5126,
      "count": 83,
      "max": [
        0.99462890625,
        4.113359451293945
      ],
      "min": [
        0.01968461275100708,
        0.005021870136260986
      ],
      "type": "VEC2"
    },
    {
      "bufferView": 0,
      "byteOffset": 1884,
      "componentType": 5125,
      "count": 213,
      "type": "SCALAR"
    }
  ],
  "asset": {
    "extras": {
      "author": "Vova Truskov (https://sketchfab.com/FlowOff)",
      "license": "CC-BY-4.0 (http://creativecommons.org/licenses/by/4.0/)",
      "source": "https://sketchfab.com/3d-models/birch-trees-pack-ps1-low-poly-5f9aa7c0a3cf4298a4cac9d4cea59643",
      "title": "Birch Trees Pack | PS1 Low Poly"
    },
    "generator": "Sketchfab-17.3.0",
    "version": "2.0"
  },
  "bufferViews": [
    {
      "buffer": 0,
      "byteLength": 2736,
      "name": "floatBufferViews",
      "target": 34963
    },
    {
      "buffer": 0,
      "byteLength": 2152,
      "byteOffset": 2736,
      "byteStride": 8,
      "name": "floatBufferViews",
      "target": 34962
    },
    {
      "buffer": 0,
      "byteLength": 6456,
      "byteOffset": 4888,
      "byteStride": 12,
      "name": "floatBufferViews",
      "target": 34962
    },
    {
      "buffer": 0,
      "byteLength": 4304,
      "byteOffset": 11344,
      "byteStride": 16,
      "name": "floatBufferViews",
      "target": 34962
    }
  ],
  "buffers": [
    {
      "byteLength": 15648,
      "uri": "scene.bin"
    }
  ],
  "extensionsUsed": [
    "KHR_materials_unlit"
  ],
  "images": [
    {
      "uri": "textures/Tree_Birch_baseColor.png"
    }
  ],
  "materials": [
    {
      "alphaMode": "BLEND",
      "doubleSided": true,
      "extensions": {
        "KHR_materials_unlit": {}
      },
      "name": "Tree_Birch",
      "pbrMetallicRoughness": {
        "baseColorTexture": {
          "index": 0
        },
        "metallicFactor": 0.0
      }
    }
  ],
  "meshes": [
    {
      "name": "Tree_Birch_T1_Tree_Birch_0",
      "primitives": [
        {
          "attributes": {
            "COLOR_0": 2,
            "NORMAL": 1,
            "POSITION": 0,
            "TEXCOORD_0": 3
          },
          "indices": 4,
          "material": 0,
          "mode": 4
        }
      ]
    },
    {
      "name": "Tree_Birch_T3_Tree_Birch_0",
      "primitives": [
        {
          "attributes": {
            "COLOR_0": 7,
            "NORMAL": 6,
            "POSITION": 5,
            "TEXCOORD_0": 8
          },
          "indices": 9,
          "material": 0,
          "mode": 4
        }
      ]
    },
    {
      "name": "Tree_Birch_T2_Tree_Birch_0",
      "primitives": [
        {
          "attributes": {
            "COLOR_0": 12,
            "NORMAL": 11,
            "POSITION": 10,
            "TEXCOORD_0": 13
          },
          "indices": 14,
          "material": 0,
          "mode": 4
        }
      ]
    }
  ],
  "nodes": [
    {
      "children": [
        1
      ],
      "matrix": [
        1.0,
        0.0,
        0.0,
        0.0,
        0.0,
        2.220446049250313e-16,
        -1.0,
        0.0,
        0.0,
        1.0,
        2.220446049250313e-16,
        0.0,
        0.0,
        0.0,
        0.0,
        1.0
      ],
      "name": "Sketchfab_model"
    },
    {
      "children": [
        2
      ],
      "matrix": [
        1.0,
        0.0,
        0.0,
        0.0,
        0.0,
        0.0,
        1.0,
        0.0,
        0.0,
        -1.0,
        0.0,
        0.0,
        0.0,
        0.0,
        0.0,
        1.0
      ],
      "name": "64bddfbe3718407cb15f3e4f04b44e6c.fbx"
    },
    {
      "children": [
        3
      ],
      "name": "RootNode"
    },
    {
      "children": [
        4,
        6,
        8
      ],
      "matrix": [
        1.0,
        0.0,
        0.0,
        0.0,
        0.0,
        -1.6292067939183141e-07,
        -0.9999999999999868,
        0.0,
        0.0,
        0.9999999999999868,
        -1.6292067939183141e-07,
        0.0,
        0.0,
        0.0,
        0.0,
        1.0
      ],
      "name": "Tree_Birch"
    },
    {
      "children": [
        5
      ],
      "matrix": [
        1.0,
        0.0,
        0.0,
        0.0,
        0.0,
        1.0,
        -2.646977960169688e-23,
        0.0,
        0.0,
        2.646977960169688e-23,
        1.0,
        0.0,
        0.0,
        0.0,
        0.0,
        1.0
      ],
      "name": "Tree_Birch_T1"
    },
    {
      "mesh": 0,
      "name": "Tree_Birch_T1_Tree_Birch_0"
    },
    {
      "children": [
        7
      ],
      "matrix": [
        1.0,
        0.0,
        0.0,
        0.0,
        0.0,
        1.0,
        -2.646977960169688e-23,
        0.0,
        0.0,
        2.646977960169688e-23,
        1.0,
        0.0,
        -10.0,
        0.0,
        0.0,
        1.0
      ],
      "name": "Tree_Birch_T3"
    },
    {
      "mesh": 1,
      "name": "Tree_Birch_T3_Tree_Birch_0"
    },
    {
      "children": [
        9
      ],
      "matrix": [
        1.0,
        0.0,
        0.0,
        0.0,
        0.0,
        1.0,
        -2.646977960169688e-23,
        0.0,
        0.0,
        2.646977960169688e-23,
        1.0,
        0.0,
        10.0,
        0.0,
        0.0,
        1.0
      ],
      "name": "Tree_Birch_T2"
    },
    {
      "mesh": 2,
      "name": "Tree_Birch_T2_Tree_Birch_0"
    }
  ],
  "samplers": [
    {
      "magFilter": 9729,
      "minFilter": 9987,
      "wrapS": 10497,
      "wrapT": 10497
    }
  ],
  "scene": 0,
  "scenes": [
    {
      "name": "Sketchfab_Scene",
      "nodes": [
        0
      ]
    }
  ],
  "textures": [
    {
      "sampler": 0,
      "source": 0
    }
  ]
}
