{
  "accessors": [
    {
      "bufferView": 2,
      "componentType": 5126,
      "count": 276,
      "max": [
        4.734889507293701,
        5.064463138580322,
        13.550392150878906
      ],
      "min": [
        -5.664024829864502,
        -5.185606002807617,
        0.07449886202812195
      ],
      "type": "VEC3"
    },
    {
      "bufferView": 2,
      "byteOffset": 3312,
      "componentType": 5126,
      "count": 276,
      "max": [
        0.963408887386322,
        0.9933159947395325,
        0.9988030195236206
      ],
      "min": [
        -0.9599201679229736,
        -0.8500794768333435,
        -0.7078977823257446
      ],
      "type": "VEC3"
    },
    {
      "bufferView": 1,
      "componentType": 5126,
      "count": 276,
      "max": [
        0.9978400468826294,
        3.15761399269104
      ],
      "min": [
        0.042459771037101746,
        -2.469749689102173
      ],
      "type": "VEC2"
    },
    {
      "bufferView": 0,
      "componentType": 5125,
      "count": 462,
      "type": "SCALAR"
    },
    {
      "bufferView": 2,
      "byteOffset": 6624,
      "componentType": 5126,
      "count": 136,
      "max": [
        4.907994747161865,
        5.455482482910156,
        17.92314910888672
      ],
      "min": [
        -5.061269760131836,
        -4.218869209289551,
        0.0
      ],
      "type": "VEC3"
    },
    {
      "bufferView": 2,
      "byteOffset": 8256,
      "componentType": 5126,
      "count": 136,
      "max": [
        0.9577099680900574,
        0.9970777034759521,
        0.9770688414573669
      ],
      "min": [
        -0.9577218294143677,
        -0.8569784760475159,
        -0.731988787651062
      ],
      "type": "VEC3"
    },
    {
      "bufferView": 1,
      "byteOffset": 2208,
      "componentType": 5126,
      "count": 136,
      "max": [
        0.9975427389144897,
        3.7401177883148193
      ],
      "min": [
        -0.0023085428401827812,
        -2.74418568611145
      ],
      "type": "VEC2"
    },
    {
      "bufferView": 0,
      "byteOffset": 1848,
      "componentType": 5125,
      "count": 300,
      "type": "SCALAR"
    },
    {
      "bufferView": 2,
      "byteOffset": 9888,
      "componentType": 5126,
      "count": 143,
      "max": [
        5.0764617919921875,
        5.982409477233887,
        11.3887357711792
      ],
      "min": [
        -4.237709045410156,
        -4.80220365524292,
        0.0002410411834716797
      ],
      "type": "VEC3"
    },
    {
      "bufferView": 2,
      "byteOffset": 11604,
      "componentType": 5126,
      "count": 143,
      "max": [
        0.9520183205604553,
        0.9998584985733032,
        0.9976601004600525
      ],
      "min": [
        -0.9554546475410461,
        -0.8454293012619019,
        -0.0017833762103691697
      ],
      "type": "VEC3"
    },
    {
      "bufferView": 1,
      "byteOffset": 3296,
      "componentType": 5126,
      "count": 143,
      "max": [
        0.9972336888313293,
        3.479095458984375
      ],
      "min": [
        0.010288983583450317,
        -2.373042583465576
      ],
      "type": "VEC2"
    },
    {
      "bufferView": 0,
      "byteOffset": 3048,
      "componentType": 5125,
      "count": 297,
      "type": "SCALAR"
    }
  ],
  "asset": {
    "extras": {
      "author": "Vova Truestory (https://sketchfab.com/FlowOff)",
      "license": "CC-BY-4.0 (http://creativecommons.org/licenses/by/4.0/)",
      "source": "https://sketchfab.com/3d-models/pine-trees-pack-ps1-low-poly-347d7f6122af4bf684f752df2dd0eb5a",
      "title": "Pine Trees Pack | PS1 Low Poly"
    },
    "generator": "Sketchfab-17.3.0",
    "version": "2.0"
  },
  "bufferViews": [
    {
      "buffer": 0,
      "byteLength": 4236,
      "name": "floatBufferViews",
      "target": 34963
    },
    {
      "buffer": 0,
      "byteLength": 4440,
      "byteOffset": 4236,
      "byteStride": 8,
      "name": "floatBufferViews",
      "target": 34962
    },
    {
      "buffer": 0,
      "byteLength": 13320,
      "byteOffset": 8676,
      "byteStride": 12,
      "name": "floatBufferViews",
      "target": 34962
    }
  ],
  "buffers": [
    {
      "byteLength": 21996,
      "uri": "scene.bin"
    }
  ],
  "extensionsRequired": [
    "KHR_materials_pbrSpecularGlossiness"
  ],
  "extensionsUsed": [
    "KHR_materials_pbrSpecularGlossiness"
  ],
  "images": [
    {
      "uri": "textures/Tree_Pine_diffuse.png"
    }
  ],
  "materials": [
    {
      "alphaMode": "BLEND",
      "doubleSided": true,
      "extensions": {
        "KHR_materials_pbrSpecularGlossiness": {
          "diffuseFactor": [
            1.0,
            1.0,
            1.0,
            1.0
          ],
          "diffuseTexture": {
            "index": 0
          },
          "glossinessFactor": 0.19595917942265426,
          "specularFactor": [
            0.0,
            0.0,
            0.0
          ]
        }
      },
      "name": "Tree_Pine"
    }
  ],
  "meshes": [
    {
      "name": "Tree_Pine_T1_Tree_Pine_0",
      "primitives": [
        {
          "attributes": {
            "NORMAL": 1,
            "POSITION": 0,
            "TEXCOORD_0": 2
          },
          "indices": 3,
          "material": 0,
          "mode": 4
        }
      ]
    },
    {
      "name": "Tree_Pine_T2_Tree_Pine_0",
      "primitives": [
        {
          "attributes": {
            "NORMAL": 5,
            "POSITION": 4,
            "TEXCOORD_0": 6
          },
          "indices": 7,
          "material": 0,
          "mode": 4
        }
      ]
    },
    {
      "name": "Tree_Pine_T3_Tree_Pine_0",
      "primitives": [
        {
          "attributes": {
            "NORMAL": 9,
            "POSITION": 8,
            "TEXCOORD_0": 10
          },
          "indices": 11,
          "material": 0,
          "mode": 4
        }
      ]
    }
  ],
  "nodes": [
    {
      "children": [
        1
      ],
      "matrix": [
        1.0,
        0.0,
        0.0,
        0.0,
        0.0,
        2.220446049250313e-16,
        -1.0,
        0.0,
        0.0,
        1.0,
        2.220446049250313e-16,
        0.0,
        0.0,
        0.0,
        0.0,
        1.0
      ],
      "name": "Sketchfab_model"
    },
    {
      "children": [
        2
      ],
      "matrix": [
        1.0,
        0.0,
        0.0,
        0.0,
        0.0,
        0.0,
        1.0,
        0.0,
        0.0,
        -1.0,
        0.0,
        0.0,
        0.0,
        0.0,
        0.0,
        1.0
      ],
      "name": "554660327ea14b6586d05e8f0c52113e.fbx"
    },
    {
      "children": [
        3
      ],
      "name": "RootNode"
    },
    {
      "children": [
        4,
        6,
        8
      ],
      "matrix": [
        1.0,
        0.0,
        0.0,
        0.0,
        0.0,
        -1.6292067939183141e-07,
        -0.9999999999999868,
        0.0,
        0.0,
        0.9999999999999868,
        -1.6292067939183141e-07,
        0.0,
        0.0,
        0.0,
        0.0,
        1.0
      ],
      "name": "Tree_Pine"
    },
    {
      "children": [
        5
      ],
      "matrix": [
        1.0,
        0.0,
        0.0,
        0.0,
        0.0,
        1.0,
        -2.646977960169688e-23,
        0.0,
        0.0,
        2.646977960169688e-23,
        1.0,
        0.0,
        -10.0,
        0.0,
        0.0,
        1.0
      ],
      "name": "Tree_Pine_T1"
    },
    {
      "mesh": 0,
      "name": "Tree_Pine_T1_Tree_Pine_0"
    },
    {
      "children": [
        7
      ],
      "matrix": [
        1.0,
        0.0,
        0.0,
        0.0,
        0.0,
        1.0,
        -2.646977960169688e-23,
        0.0,
        0.0,
        2.646977960169688e-23,
        1.0,
        0.0,
        0.0,
        0.0,
        0.0,
        1.0
      ],
      "name": "Tree_Pine_T2"
    },
    {
      "mesh": 1,
      "name": "Tree_Pine_T2_Tree_Pine_0"
    },
    {
      "children": [
        9
      ],
      "matrix": [
        1.0,
        0.0,
        0.0,
        0.0,
        0.0,
        1.0,
        -2.646977960169688e-23,
        0.0,
        0.0,
        2.646977960169688e-23,
        1.0,
        0.0,
        10.0,
        0.0,
        0.0,
        1.0
      ],
      "name": "Tree_Pine_T3"
    },
    {
      "mesh": 2,
      "name": "Tree_Pine_T3_Tree_Pine_0"
    }
  ],
  "samplers": [
    {
      "magFilter": 9729,
      "minFilter": 9987,
      "wrapS": 10497,
      "wrapT": 10497
    }
  ],
  "scene": 0,
  "scenes": [
    {
      "name": "Sketchfab_Scene",
      "nodes": [
        0
      ]
    }
  ],
  "textures": [
    {
      "sampler": 0,
      "source": 0
    }
  ]
}
